<svg width="364" height="102" viewBox="0 0 364 102" fill="none" xmlns="http://www.w3.org/2000/svg">
<mask id="path-1-inside-1_5_80343" fill="white">
<path fill-rule="evenodd" clip-rule="evenodd" d="M20.9492 101.588C9.90352 101.588 0.949219 92.6336 0.949219 81.5879V29.5879C0.949219 18.5422 9.90353 9.58789 20.9492 9.58789H324.916L363.051 -0.000907898L352.949 35.4952V81.5879C352.949 92.6336 343.995 101.588 332.949 101.588H20.9492Z"/>
</mask>
<path d="M324.916 9.58789L325.16 10.5577L325.04 10.5879H324.916V9.58789ZM363.051 -0.000907898L362.807 -0.970718L364.487 -1.39308L364.013 0.27282L363.051 -0.000907898ZM352.949 35.4952H351.949V35.3557L351.987 35.2215L352.949 35.4952ZM1.94922 81.5879C1.94922 92.0813 10.4558 100.588 20.9492 100.588V102.588C9.35124 102.588 -0.0507812 93.1859 -0.0507812 81.5879H1.94922ZM1.94922 29.5879V81.5879H-0.0507812V29.5879H1.94922ZM20.9492 10.5879C10.4558 10.5879 1.94922 19.0945 1.94922 29.5879H-0.0507812C-0.0507812 17.9899 9.35124 8.58789 20.9492 8.58789V10.5879ZM324.916 10.5879H20.9492V8.58789H324.916V10.5879ZM363.295 0.968903L325.16 10.5577L324.672 8.61808L362.807 -0.970718L363.295 0.968903ZM351.987 35.2215L362.089 -0.274635L364.013 0.27282L353.911 35.769L351.987 35.2215ZM351.949 81.5879V35.4952H353.949V81.5879H351.949ZM332.949 100.588C343.443 100.588 351.949 92.0813 351.949 81.5879H353.949C353.949 93.1859 344.547 102.588 332.949 102.588V100.588ZM20.9492 100.588H332.949V102.588H20.9492V100.588Z" fill="#07C698" mask="url(#path-1-inside-1_5_80343)"/>
</svg>
