<svg width="64" height="64" viewBox="0 0 64 64" fill="none" xmlns="http://www.w3.org/2000/svg">
<path d="M49.2531 44.8807L50.2931 53.3073C50.5597 55.5207 48.1864 57.0673 46.2931 55.9207L37.0664 50.4273C36.4264 50.054 36.2664 49.254 36.6131 48.614C37.9464 46.1607 38.6664 43.3873 38.6664 40.614C38.6664 30.854 30.2931 22.9073 19.9997 22.9073C17.8931 22.9073 15.8397 23.2273 13.9197 23.8673C12.933 24.1873 11.9731 23.2807 12.2131 22.2673C14.6397 12.5607 23.9731 5.33398 35.1197 5.33398C48.1331 5.33398 58.6664 15.174 58.6664 27.3073C58.6664 34.5073 54.9597 40.8807 49.2531 44.8807Z" fill="#07C698"/>
<path d="M34.6673 40.6129C34.6673 43.7862 33.494 46.7196 31.5207 49.0396C28.8807 52.2396 24.694 54.2929 20.0007 54.2929L13.0407 58.4263C11.8673 59.1463 10.374 58.1596 10.534 56.7996L11.2007 51.5462C7.62732 49.0662 5.33398 45.0929 5.33398 40.6129C5.33398 35.9196 7.84065 31.7862 11.6807 29.3329C14.054 27.7862 16.9073 26.9062 20.0007 26.9062C28.1073 26.9062 34.6673 33.0396 34.6673 40.6129Z" fill="#07C698"/>
</svg>
