<svg width="97" height="97" viewBox="0 0 97 97" fill="none" xmlns="http://www.w3.org/2000/svg">
<g clip-path="url(#clip0_15_63416)">
<path d="M97 59.412C97 44.6195 82.9956 32.6006 65.7781 32.6006C64.5656 32.6006 63.3683 32.6764 62.1861 32.7977C62.4134 31.5245 62.5347 30.2362 62.5347 28.948C62.5347 14.4434 48.5 2.63672 31.2522 2.63672C14.0044 2.63672 3.07712e-09 14.4283 6.86616e-09 28.948C8.97822e-09 37.0414 4.27406 44.4831 11.7613 49.515C11.8067 51.3489 11.8219 55.3501 11.0792 57.5023C10.5639 58.9725 10.867 60.5639 11.8977 61.7612C12.7009 62.6555 13.868 63.1708 15.0653 63.1708C15.6867 63.1708 16.2627 63.0495 16.7628 62.8222C21.1733 60.8216 24.6744 58.2753 27.448 55.0773C28.6908 55.1986 29.9639 55.2744 31.237 55.2744C32.495 55.2744 33.753 55.1834 35.0109 55.0622C34.7381 56.4869 34.5562 57.9419 34.5562 59.4272C34.5562 74.2197 48.5606 86.2386 65.7781 86.2386C67.218 86.2386 68.582 86.1477 69.9006 85.9961L78.3275 93.2105C79.2066 93.9683 80.3281 94.3926 81.4952 94.3926C82.647 94.3926 83.7686 93.9834 84.6477 93.2256C86.3148 91.8161 86.815 89.482 85.8905 87.4359C84.7537 84.9503 84.587 82.6314 85.36 80.3276C92.7562 75.1897 97 67.6116 97 59.412ZM71.492 83.0861C71.2041 82.8284 70.8252 82.692 70.4463 82.692L70.4311 82.692L70.4159 82.692L70.2189 82.7072C68.8245 82.9042 67.3392 82.9951 65.7933 82.9951C50.3491 82.9951 37.7997 72.4161 37.7997 59.3969C37.7997 46.3928 50.3642 35.7986 65.7933 35.7986C81.2223 35.7986 93.7869 46.3776 93.7869 59.3969C93.7869 66.6719 89.8917 73.4315 83.1017 77.933C83.0866 77.9481 83.0714 77.9633 83.0563 77.9784C82.9198 78.0845 82.7986 78.2058 82.6925 78.3422C82.6622 78.3876 82.6319 78.4483 82.6016 78.5089C82.5561 78.5695 82.5106 78.6301 82.4803 78.7059C81.2375 81.9494 81.4042 85.314 82.9502 88.7394C83.2836 89.4669 83.1169 90.2701 82.5713 90.74C82.2681 90.9976 81.8892 91.1341 81.5103 91.1341C81.1162 91.1341 80.7373 90.9976 80.4494 90.74L71.492 83.0861ZM14.1256 58.5633C15.1866 55.5169 15.035 50.1364 14.9592 48.5602L14.9138 47.6659L14.6713 47.6811C14.5197 47.4537 14.3227 47.287 14.1105 47.1961C7.19922 42.7705 3.22828 36.1169 3.22828 28.9328C3.22828 16.2016 15.808 5.83469 31.2825 5.83469C46.757 5.83469 59.3367 16.2167 59.3367 28.948C59.3367 30.403 59.1548 31.858 58.8062 33.2978C47.8634 35.45 39.1031 42.5431 35.89 51.6975C34.3441 51.9097 32.783 52.0309 31.237 52.0309C29.782 52.0309 28.3573 51.94 26.9478 51.7581L26.7659 51.743C26.2809 51.743 25.8263 51.9551 25.508 52.3341C22.9617 55.4714 19.6577 57.9419 15.3987 59.8819C15.3533 59.897 15.2623 59.9273 15.1259 59.9273C14.8077 59.9273 14.4591 59.7909 14.2923 59.6091C14.065 59.3362 13.9892 58.9422 14.1256 58.5633Z" fill="#FC4100"/>
<path d="M18.6114 34.2233C21.1425 34.2233 23.2038 32.162 23.2038 29.6309C23.2038 27.0998 21.1577 25.0234 18.6114 25.0234C16.0652 25.0234 14.0039 27.0847 14.0039 29.6309C14.0039 32.162 16.0652 34.2233 18.6114 34.2233ZM31.282 34.2233C33.8131 34.2233 35.8744 32.162 35.8744 29.6309C35.8744 27.0998 33.8283 25.0234 31.282 25.0234C28.7509 25.0234 26.6745 27.0847 26.6745 29.6309C26.6745 32.162 28.7509 34.2233 31.282 34.2233ZM43.9527 34.2233C46.4838 34.2233 48.545 32.162 48.545 29.6309C48.545 27.0998 46.4989 25.0234 43.9527 25.0234C41.4064 25.0234 39.3452 27.0847 39.3452 29.6309C39.3603 32.162 41.4216 34.2233 43.9527 34.2233ZM53.107 54.8206C50.5759 54.8206 48.4995 56.8667 48.4995 59.413C48.4995 61.9441 50.5608 64.0205 53.107 64.0205C55.623 64.0205 57.6994 61.9592 57.6994 59.413C57.6994 56.8819 55.6381 54.8206 53.107 54.8206ZM65.7928 54.8206C63.2617 54.8206 61.1853 56.8667 61.1853 59.413C61.1853 61.9441 63.2466 64.0205 65.7928 64.0205C68.3088 64.0205 70.3852 61.9592 70.3852 59.413C70.37 56.8819 68.3088 54.8206 65.7928 54.8206ZM83.0406 59.413C83.0406 56.8819 80.9794 54.8206 78.4483 54.8206C75.9172 54.8206 73.8408 56.8667 73.8408 59.413C73.8408 61.9441 75.902 64.0205 78.4483 64.0205C80.9794 64.0205 83.0406 61.9441 83.0406 59.413Z" fill="#FC4100"/>
</g>
<defs>
<clipPath id="clip0_15_63416">
<rect width="97" height="97" fill="white"/>
</clipPath>
</defs>
</svg>
