<svg width="24" height="25" viewBox="0 0 24 25" fill="none" xmlns="http://www.w3.org/2000/svg">
<path d="M15.5799 12.4999C15.5799 14.4799 13.9799 16.0799 11.9999 16.0799C10.0199 16.0799 8.41992 14.4799 8.41992 12.4999C8.41992 10.5199 10.0199 8.91992 11.9999 8.91992C13.9799 8.91992 15.5799 10.5199 15.5799 12.4999Z" stroke="#A19E9C" stroke-width="1.5" stroke-linecap="round" stroke-linejoin="round"/>
<path d="M11.9998 20.7697C15.5298 20.7697 18.8198 18.6897 21.1098 15.0897C22.0098 13.6797 22.0098 11.3097 21.1098 9.89973C18.8198 6.29973 15.5298 4.21973 11.9998 4.21973C8.46984 4.21973 5.17984 6.29973 2.88984 9.89973C1.98984 11.3097 1.98984 13.6797 2.88984 15.0897C5.17984 18.6897 8.46984 20.7697 11.9998 20.7697Z" stroke="#A19E9C" stroke-width="1.5" stroke-linecap="round" stroke-linejoin="round"/>
</svg>
