<svg width="165" height="56" viewBox="0 0 165 56" fill="none" xmlns="http://www.w3.org/2000/svg">
<path d="M50.6697 41.3309C51.4163 39.5582 51.8293 37.6141 51.8293 35.5816C51.8293 30.2669 49.0701 25.4482 44.5597 22.7556C44.0584 22.4256 40.3397 20.0721 35.3406 19.3291C30.5795 18.6222 26.0746 20.1948 25.8852 20.2633L24.4551 20.7719L27.6147 25.275L24.392 28.8999L3.72111 0L2.77431 0.721371C2.52905 0.908927 0.363131 2.6853 0.0385139 7.30929C-0.23741 11.2462 1.03581 14.7268 1.73734 16.312C0.934819 17.1903 0.0349091 19.0352 0.0349091 22.8909C0.0349091 26.7466 1.12598 29.5924 1.77341 30.8512C1.0268 31.9261 0.0349091 34.2362 0.0349091 38.9125C0.0349091 45.5996 5.31354 50.0721 5.53897 50.2597L5.85997 50.5266H36.9979C38.7527 52.8909 41.3658 54.3895 43.8023 54.3895C44.7184 54.3895 45.6309 54.2254 46.4858 53.9116C46.9709 54.6096 47.3063 55.0911 47.3153 55.1037L47.9375 56L48.8681 55.4301C51.5949 53.7583 53.2234 50.853 53.2234 47.6573C53.2234 45.2822 52.3018 43.0207 50.6679 41.3291L50.6697 41.3309ZM30.5579 25.4445L28.1557 22.0216C29.7319 21.6501 32.3487 21.2209 35.0033 21.6141C38.4172 22.1208 41.2216 23.4968 42.5291 24.229L42.511 24.2633L43.4109 24.7592C47.2035 27.0406 49.5209 31.1037 49.5209 35.5834C49.5209 42.083 44.5182 47.5041 38.1612 48.1515L25.7716 30.8278L30.5579 25.4445ZM4.1341 30.3246C4.07639 30.2381 2.34871 27.6069 2.34871 22.8909C2.34871 20.4473 2.72562 19.1326 3.06827 18.4436L24.9222 48.2182H17.1963L4.1341 30.3246ZM2.34871 38.9125C2.34871 35.8359 2.81579 34.0252 3.2378 33.0153L14.3361 48.2182H6.72923C5.70308 47.239 2.34871 43.67 2.34871 38.9143V38.9125ZM27.786 48.2164L4.17017 16.0415C3.90506 15.5293 2.04393 11.7619 2.3451 7.4716C2.47855 5.56718 2.9745 4.31019 3.41814 3.54373L35.3694 48.2182H27.7842L27.786 48.2164ZM43.8059 52.0812C42.4876 52.0812 41.0232 51.3796 39.8185 50.2363C40.9889 50 42.1088 49.6267 43.1657 49.1326L43.9916 50.3192C43.9916 50.3192 43.9916 50.3192 43.9916 50.321V50.3246C44.3433 50.8278 44.7292 51.3796 45.1079 51.9243C44.6859 52.0271 44.2513 52.0794 43.8059 52.0794V52.0812ZM48.5453 52.8242L45.2107 48.0307C45.2017 48.018 45.1927 48.0036 45.1837 47.991C46.9186 46.8224 48.401 45.3003 49.5209 43.5311C50.419 44.7069 50.9168 46.1533 50.9168 47.661C50.9168 49.679 50.0457 51.5419 48.5453 52.8242Z" fill="#FC4100"/>
<path d="M43.0888 37.0077C44.5251 37.0077 45.6894 35.8434 45.6894 34.4072C45.6894 32.9709 44.5251 31.8066 43.0888 31.8066C41.6526 31.8066 40.4883 32.9709 40.4883 34.4072C40.4883 35.8434 41.6526 37.0077 43.0888 37.0077Z" fill="#181615"/>
<path d="M65.615 26.7134H61.5215V42.709H65.6027C66.6445 42.709 67.531 42.4842 68.2664 42.0304C69.0017 41.5809 69.5573 40.9243 69.9454 40.0739C70.3295 39.219 70.5215 38.1879 70.5215 36.9761V32.4418C70.5215 30.6219 70.0925 29.2119 69.2387 28.2116C68.3848 27.2113 67.1756 26.709 65.6109 26.709L65.615 26.7134ZM68.6667 37.0687C68.6667 38.1835 68.4053 39.0472 67.8823 39.6597C67.3594 40.2722 66.62 40.5806 65.6681 40.5806H63.3354V28.8505H65.6681C66.62 28.8505 67.3594 29.159 67.8823 29.7715C68.4053 30.384 68.6667 31.2477 68.6667 32.3625V37.0731V37.0687Z" fill="#181615"/>
<path d="M74.5215 26.709H72.5215V42.709H74.5215V26.709Z" fill="#181615"/>
<path d="M80.2514 26.709L75.5215 42.709H77.4639L78.431 39.196H83.612L84.5791 42.709H86.5215L81.7915 26.709H80.2555H80.2514ZM79.0161 37.0671L81.0195 29.8032L83.0228 37.0671H79.0202H79.0161Z" fill="#181615"/>
<path d="M88.7048 26.709H86.5215V42.709H87.6156H88.7048H96.5215V40.5718H88.7048V26.709Z" fill="#181615"/>
<path d="M97.4752 26.709H96.5215V42.709H97.4752H98.4865H105.521V40.5718H98.4865V35.8304H104.461V33.6977H98.4865V28.8461H105.521V26.709H98.4865H97.4752Z" fill="#181615"/>
<path d="M108.12 29.8736C108.605 29.1958 109.246 28.8547 110.044 28.8547C110.426 28.8547 110.796 28.9583 111.15 29.1655C111.508 29.3728 111.82 29.6664 112.083 30.0463C112.347 30.4219 112.536 30.8623 112.651 31.3674H114.517C114.369 30.4348 114.086 29.6189 113.666 28.9195C113.247 28.2244 112.725 27.6804 112.104 27.2918C111.483 26.9033 110.796 26.709 110.044 26.709C109.14 26.709 108.346 26.9508 107.668 27.4386C106.989 27.9222 106.463 28.6043 106.085 29.4807C105.711 30.3571 105.521 31.3846 105.521 32.5633V36.8633C105.521 38.0333 105.711 39.0609 106.085 39.9373C106.459 40.8137 106.985 41.4958 107.668 41.9794C108.346 42.4629 109.14 42.709 110.044 42.709C110.796 42.709 111.479 42.5147 112.1 42.1261C112.721 41.7376 113.239 41.1936 113.662 40.4985C114.086 39.8034 114.369 38.9831 114.521 38.0506H112.655C112.482 38.8622 112.145 39.4839 111.643 39.9157C111.142 40.3474 110.611 40.5633 110.044 40.5633C109.246 40.5633 108.605 40.2265 108.12 39.5487C107.635 38.8709 107.392 37.9772 107.392 36.8633V32.5633C107.392 31.4494 107.635 30.5514 108.12 29.8736Z" fill="#181615"/>
<path d="M115.521 28.8461H119.528V42.709H121.515V28.8461H125.521V26.709H115.521V28.8461Z" fill="#181615"/>
<path d="M132.578 42.709H134.521L129.79 26.709H128.253L123.521 42.709H125.465L126.432 39.196H131.615L132.582 42.709H132.578ZM127.017 37.0627L129.021 29.7988L131.026 37.0627H127.022H127.017Z" fill="#181615"/>
</svg>
